<svg width="702" height="134" xmlns="http://www.w3.org/2000/svg"><title>Custom Preset 4 Copy 5</title><g fill="none" fill-rule="evenodd"><path d="m236.145 101 4.015-12.98h25.465L269.64 101h18.535L264.69 27.19h-22.385L217.445 101h18.7Zm25.465-26.015h-16.995l8.635-27.005 8.36 27.005ZM317.05 101V25.1h-17.6V101h17.6Zm36.3 26.29-.001-28.571.055.05c.552.51 1.143.968 1.773 1.373l.318.198c2.677 1.613 6.013 2.42 10.01 2.42 4.583 0 8.882-1.137 12.897-3.41 4.016-2.273 7.26-5.555 9.736-9.845 2.475-4.29 3.712-9.478 3.712-15.565 0-6.123-1.22-11.33-3.658-15.62-2.438-4.29-5.6-7.572-9.487-9.845-3.887-2.273-7.993-3.41-12.32-3.41-3.263 0-6.343.834-9.24 2.503-2.086 1.2-3.881 2.93-5.387 5.186l-.217.332-1.436-6.261H335.75v80.465h17.6Zm9.35-40.59c-1.687 0-3.245-.312-4.675-.935-1.43-.623-2.567-1.485-3.41-2.585-.843-1.1-1.265-2.383-1.265-3.85h-.001v-8.91l.007-.378c.047-1.624.405-3.062 1.072-4.314l.16-.285a8.447 8.447 0 0 1 3.437-3.273c1.467-.77 3.135-1.155 5.005-1.155 2.31 0 4.3.532 5.968 1.595 1.668 1.063 2.96 2.567 3.877 4.51.917 1.943 1.375 4.217 1.375 6.82 0 3.08-.614 5.555-1.842 7.425-1.229 1.87-2.732 3.227-4.51 4.07-1.779.843-3.511 1.265-5.198 1.265Zm53.625-46.86c3.227 0 5.775-.853 7.645-2.558 1.87-1.704 2.805-4.115 2.805-7.232 0-3.043-.935-5.473-2.805-7.288-1.87-1.814-4.418-2.722-7.645-2.722-3.337 0-5.912.908-7.727 2.723-1.815 1.814-2.723 4.244-2.723 7.287 0 3.117.908 5.527 2.723 7.232 1.815 1.706 4.39 2.558 7.727 2.558Zm8.8 61.16V46.495h-17.6V101h17.6Zm37.84 0V78.175l.003-.56c.042-3.7.5-6.724 1.375-9.075l.135-.348c1.008-2.511 2.355-4.335 4.042-5.472 1.687-1.137 3.538-1.705 5.555-1.705 1.98 0 3.667.688 5.06 2.063 1.393 1.374 2.09 3.492 2.09 6.352V101h17.71V69.43c0-4.73-.697-8.928-2.09-12.595-1.393-3.667-3.566-6.545-6.518-8.635-2.951-2.09-6.755-3.135-11.412-3.135-4.07 0-7.71 1.137-10.918 3.41-1.99 1.411-3.72 3.324-5.19 5.738l-.151.253-1.781-7.641h-15.51V101h17.6Zm74.855 1.76c4.473 0 8.424-.807 11.852-2.42 3.429-1.613 6.216-3.795 8.36-6.545 2.145-2.75 3.493-5.812 4.043-9.185h-17.49c-.477 1.43-1.32 2.475-2.53 3.135-1.21.66-2.622.99-4.235.99-1.98 0-3.62-.468-4.923-1.403-1.301-.934-2.282-2.245-2.942-3.932-.66-1.687-.99-3.685-.99-5.995l.001.11h32.559c.868-3.89 1.038-7.674.507-11.35l-.095-.613c-.641-3.868-1.998-7.342-4.07-10.422-2.071-3.08-4.794-5.528-8.167-7.343-3.373-1.815-7.333-2.722-11.88-2.722-4.583 0-8.873 1.137-12.87 3.41s-7.223 5.546-9.68 9.817c-2.457 4.272-3.685 9.396-3.685 15.373 0 5.977 1.238 11.147 3.713 15.51 2.475 4.363 5.71 7.718 9.707 10.065 3.997 2.347 8.268 3.52 12.815 3.52Zm8.359-34.155h-17.135l.001-.015c.134-1.504.434-2.841.902-4.011l.145-.346c.752-1.706 1.816-3.007 3.19-3.906 1.375-.898 2.998-1.347 4.868-1.347 1.687 0 3.07.34 4.153 1.018a6.933 6.933 0 0 1 2.502 2.695c.587 1.118.98 2.337 1.183 3.657.1.66.162 1.315.185 1.966l.006.289Zm34.596 33.385c3.483 0 6.362-1.054 8.635-3.162 2.273-2.109 3.41-4.795 3.41-8.058s-1.137-5.977-3.41-8.14c-2.273-2.163-5.152-3.245-8.635-3.245-3.483 0-6.316 1.082-8.497 3.245-2.182 2.163-3.273 4.877-3.273 8.14 0 3.227 1.09 5.903 3.273 8.03 2.181 2.127 5.014 3.19 8.497 3.19Zm33.605-62.15c3.227 0 5.775-.853 7.645-2.558 1.87-1.704 2.805-4.115 2.805-7.232 0-3.043-.935-5.473-2.805-7.288-1.87-1.814-4.418-2.722-7.645-2.722-3.227 0-5.793.908-7.7 2.723-1.907 1.814-2.86 4.244-2.86 7.287 0 3.117.953 5.527 2.86 7.232 1.907 1.706 4.473 2.558 7.7 2.558Zm-10.505 89.375c6.417 0 11.275-1.75 14.575-5.252 3.3-3.502 4.95-9.415 4.95-17.738v-59.62h-17.71v59.29c0 3.153-.56 5.262-1.678 6.325-1.118 1.063-2.814 1.595-5.087 1.595-1.76 0-3.667-.257-5.72-.77s-3.868-1.082-5.445-1.705v15.125c2.53.697 5.042 1.33 7.535 1.898 2.493.568 5.353.852 8.58.852Zm60.665-26.455c4.547 0 8.617-.843 12.21-2.53 3.593-1.687 6.426-3.877 8.497-6.573 2.072-2.694 3.108-5.545 3.108-8.552 0-3.3-1.063-6.05-3.19-8.25s-5.042-4.033-8.745-5.5l-14.96-5.995c-2.31-.807-3.465-1.907-3.465-3.3 0-1.027.55-1.852 1.65-2.475 1.1-.623 2.603-.935 4.51-.935 2.31 0 3.96.43 4.95 1.293.99.861 1.485 1.879 1.485 3.052h16.115c-.037-5.207-1.998-9.497-5.885-12.87-3.887-3.373-9.442-5.06-16.665-5.06-7.7 0-13.768 1.485-18.205 4.455-4.437 2.97-6.655 6.857-6.655 11.66 0 3.41 1.054 6.352 3.163 8.827 2.108 2.475 5.105 4.52 8.992 6.133l13.145 5.115c1.393.55 2.42 1.1 3.08 1.65.66.55.99 1.283.99 2.2 0 .697-.238 1.347-.715 1.953-.477.604-1.192 1.09-2.145 1.457-.953.367-2.163.55-3.63.55-2.42 0-4.336-.367-5.747-1.1-1.412-.733-2.155-2.053-2.228-3.96h-15.895c-.037 4.217 1.054 7.71 3.273 10.478 2.218 2.768 5.307 4.84 9.267 6.215 3.96 1.375 8.525 2.062 13.695 2.062Z" fill="#2D3441" fill-rule="nonzero"/><path fill="#77C1D2" d="M149.52 22.303 189.392 62l-39.872 39.697L109.648 62z"/><path fill="#2D3441" d="M49.84 22.303 132.5 104.6H52.756L9.968 62z"/></g></svg>