<?xml version="1.0" standalone="no"?>
<!DOCTYPE svg PUBLIC "-//W3C//DTD SVG 20010904//EN"
 "http://www.w3.org/TR/2001/REC-SVG-20010904/DTD/svg10.dtd">
<svg version="1.0" xmlns="http://www.w3.org/2000/svg"
 width="512.000000pt" height="512.000000pt" viewBox="0 0 512.000000 512.000000"
 preserveAspectRatio="xMidYMid meet">
<metadata>
Created by potrace 1.14, written by Peter Selinger 2001-2017
</metadata>
<g transform="translate(0.000000,512.000000) scale(0.100000,-0.100000)"
fill="#000000" stroke="none">
<path d="M2233 3831 c-10 -9 -34 -16 -53 -17 -50 -1 -258 -14 -305 -19 -22 -2
-62 -6 -90 -9 -27 -3 -77 -8 -110 -11 -33 -3 -94 -11 -135 -17 -41 -6 -88 -12
-105 -13 -48 -5 -269 -44 -374 -66 -53 -11 -107 -22 -121 -25 -14 -2 -31 -7
-39 -10 -8 -2 -28 -7 -45 -10 -17 -3 -94 -23 -171 -44 -77 -22 -148 -42 -158
-45 -10 -2 -42 -15 -71 -28 -201 -92 -348 -259 -412 -469 -82 -265 6 -615 164
-658 l40 -10 0 -263 c0 -258 5 -309 38 -407 32 -95 116 -212 194 -271 25 -19
47 -37 50 -41 11 -14 157 -77 206 -89 36 -9 245 -13 766 -14 578 -1 720 -4
732 -15 22 -17 642 -16 663 2 10 8 201 12 686 13 722 2 695 1 828 53 82 32
200 131 258 216 98 142 117 235 116 572 l-1 250 67 0 c101 -1 158 37 204 137
72 158 83 371 29 534 -38 115 -134 267 -205 327 -143 120 -223 154 -547 235
-138 35 -360 82 -447 95 -16 3 -73 12 -125 20 -110 18 -144 22 -220 31 -30 4
-69 8 -85 10 -17 2 -64 7 -105 10 -41 3 -90 8 -107 10 -18 3 -81 7 -140 10
-162 9 -196 13 -204 27 -6 10 -81 13 -328 14 -283 2 -322 0 -338 -15z"/>
</g>
</svg>
